# Blender 4.1.1
# www.blender.org
mtllib cylinder.mtl
o Cylinder
v -0.012500 0.000000 0.188000
v -0.012500 0.000000 0.205500
v -0.012260 0.002438 0.188000
v -0.012260 0.002438 0.205500
v -0.011548 0.004783 0.188000
v -0.011548 0.004783 0.205500
v -0.010393 0.006945 0.188000
v -0.010393 0.006945 0.205500
v -0.008839 0.008839 0.188000
v -0.008839 0.008839 0.205500
v -0.006945 0.010393 0.188000
v -0.006945 0.010393 0.205500
v -0.004783 0.011548 0.188000
v -0.004783 0.011548 0.205500
v -0.002438 0.012260 0.188000
v -0.002438 0.012260 0.205500
v 0.000000 0.012500 0.188000
v 0.000000 0.012500 0.205500
v 0.002438 0.012260 0.188000
v 0.002438 0.012260 0.205500
v 0.004783 0.011548 0.188000
v 0.004783 0.011548 0.205500
v 0.006945 0.010393 0.188000
v 0.006945 0.010393 0.205500
v 0.008839 0.008839 0.188000
v 0.008839 0.008839 0.205500
v 0.010393 0.006945 0.188000
v 0.010393 0.006945 0.205500
v 0.011548 0.004783 0.188000
v 0.011548 0.004783 0.205500
v 0.012260 0.002438 0.188000
v 0.012260 0.002438 0.205500
v 0.012500 0.000000 0.188000
v 0.012500 0.000000 0.205500
v 0.012260 -0.002438 0.188000
v 0.012260 -0.002438 0.205500
v 0.011548 -0.004783 0.188000
v 0.011548 -0.004783 0.205500
v 0.010393 -0.006945 0.188000
v 0.010393 -0.006945 0.205500
v 0.008839 -0.008839 0.188000
v 0.008839 -0.008839 0.205500
v 0.006945 -0.010393 0.188000
v 0.006945 -0.010393 0.205500
v 0.004783 -0.011548 0.188000
v 0.004783 -0.011548 0.205500
v 0.002438 -0.012260 0.188000
v 0.002438 -0.012260 0.205500
v 0.000000 -0.012500 0.188000
v 0.000000 -0.012500 0.205500
v -0.002438 -0.012260 0.188000
v -0.002438 -0.012260 0.205500
v -0.004783 -0.011548 0.188000
v -0.004783 -0.011548 0.205500
v -0.006945 -0.010393 0.188000
v -0.006945 -0.010393 0.205500
v -0.008839 -0.008839 0.188000
v -0.008839 -0.008839 0.205500
v -0.010393 -0.006945 0.188000
v -0.010393 -0.006945 0.205500
v -0.011548 -0.004783 0.188000
v -0.011548 -0.004783 0.205500
v -0.012260 -0.002438 0.188000
v -0.012260 -0.002438 0.205500
v -0.032500 0.000000 0.000000
v -0.032500 0.000000 0.187500
v -0.031876 0.006340 0.000000
v -0.031876 0.006340 0.187500
v -0.030026 0.012437 0.000000
v -0.030026 0.012437 0.187500
v -0.027023 0.018056 0.000000
v -0.027023 0.018056 0.187500
v -0.022981 0.022981 0.000000
v -0.022981 0.022981 0.187500
v -0.018056 0.027023 0.000000
v -0.018056 0.027023 0.187500
v -0.012437 0.030026 0.000000
v -0.012437 0.030026 0.187500
v -0.006340 0.031876 0.000000
v -0.006340 0.031876 0.187500
v 0.000000 0.032500 0.000000
v 0.000000 0.032500 0.187500
v 0.006340 0.031876 0.000000
v 0.006340 0.031876 0.187500
v 0.012437 0.030026 0.000000
v 0.012437 0.030026 0.187500
v 0.018056 0.027023 0.000000
v 0.018056 0.027023 0.187500
v 0.022981 0.022981 0.000000
v 0.022981 0.022981 0.187500
v 0.027023 0.018056 0.000000
v 0.027023 0.018056 0.187500
v 0.030026 0.012437 0.000000
v 0.030026 0.012437 0.187500
v 0.031876 0.006340 0.000000
v 0.031876 0.006340 0.187500
v 0.032500 0.000000 0.000000
v 0.032500 0.000000 0.187500
v 0.031876 -0.006340 0.000000
v 0.031876 -0.006340 0.187500
v 0.030026 -0.012437 0.000000
v 0.030026 -0.012437 0.187500
v 0.027023 -0.018056 0.000000
v 0.027023 -0.018056 0.187500
v 0.022981 -0.022981 0.000000
v 0.022981 -0.022981 0.187500
v 0.018056 -0.027023 0.000000
v 0.018056 -0.027023 0.187500
v 0.012437 -0.030026 0.000000
v 0.012437 -0.030026 0.187500
v 0.006340 -0.031876 0.000000
v 0.006340 -0.031876 0.187500
v 0.000000 -0.032500 0.000000
v 0.000000 -0.032500 0.187500
v -0.006340 -0.031876 0.000000
v -0.006340 -0.031876 0.187500
v -0.012437 -0.030026 0.000000
v -0.012437 -0.030026 0.187500
v -0.018056 -0.027023 0.000000
v -0.018056 -0.027023 0.187500
v -0.022981 -0.022981 0.000000
v -0.022981 -0.022981 0.187500
v -0.027023 -0.018056 0.000000
v -0.027023 -0.018056 0.187500
v -0.030026 -0.012437 0.000000
v -0.030026 -0.012437 0.187500
v -0.031876 -0.006340 0.000000
v -0.031876 -0.006340 0.187500
vn -0.9952 0.0979 -0.0000
vn -0.9569 0.2904 -0.0000
vn -0.8819 0.4713 -0.0000
vn -0.7730 0.6344 -0.0000
vn -0.6344 0.7730 -0.0000
vn -0.4713 0.8819 -0.0000
vn -0.2904 0.9569 -0.0000
vn -0.0979 0.9952 -0.0000
vn 0.0979 0.9952 -0.0000
vn 0.2904 0.9569 -0.0000
vn 0.4713 0.8819 -0.0000
vn 0.6344 0.7730 -0.0000
vn 0.7730 0.6344 -0.0000
vn 0.8819 0.4713 -0.0000
vn 0.9569 0.2904 -0.0000
vn 0.9952 0.0979 -0.0000
vn 0.9952 -0.0979 -0.0000
vn 0.9569 -0.2904 -0.0000
vn 0.8819 -0.4713 -0.0000
vn 0.7730 -0.6344 -0.0000
vn 0.6344 -0.7730 -0.0000
vn 0.4713 -0.8819 -0.0000
vn 0.2904 -0.9569 -0.0000
vn 0.0979 -0.9952 -0.0000
vn -0.0979 -0.9952 -0.0000
vn -0.2904 -0.9569 -0.0000
vn -0.4713 -0.8819 -0.0000
vn -0.6344 -0.7730 -0.0000
vn -0.7730 -0.6344 -0.0000
vn -0.8819 -0.4713 -0.0000
vn -0.0000 -0.0000 1.0000
vn -0.9569 -0.2904 -0.0000
vn -0.9952 -0.0979 -0.0000
vn -0.0000 -0.0000 -1.0000
vt 0.886981 0.711474
vt 0.886981 0.897455
vt 0.875357 0.897455
vt 0.875357 0.711474
vt 0.863734 0.897455
vt 0.863734 0.711474
vt 0.852110 0.897455
vt 0.852110 0.711474
vt 0.840486 0.897455
vt 0.840486 0.711474
vt 0.828862 0.897455
vt 0.828862 0.711474
vt 0.817238 0.897455
vt 0.817238 0.711474
vt 0.805615 0.897455
vt 0.805615 0.711474
vt 0.793991 0.897455
vt 0.793991 0.711474
vt 0.782367 0.897455
vt 0.782367 0.711474
vt 0.770743 0.897455
vt 0.770743 0.711474
vt 0.759119 0.897455
vt 0.759119 0.711474
vt 0.747495 0.897455
vt 0.747495 0.711474
vt 0.735871 0.897455
vt 0.735871 0.711474
vt 0.724248 0.897455
vt 0.724248 0.711474
vt 0.712624 0.897455
vt 0.712624 0.711474
vt 0.701000 0.897455
vt 0.701000 0.711474
vt 0.689376 0.897455
vt 0.689376 0.711474
vt 0.677752 0.897455
vt 0.677752 0.711474
vt 0.666129 0.897455
vt 0.666129 0.711474
vt 0.654505 0.897455
vt 0.654505 0.711474
vt 0.642881 0.897455
vt 0.642881 0.711474
vt 0.631257 0.897455
vt 0.631257 0.711474
vt 0.619633 0.897455
vt 0.619633 0.711474
vt 0.608009 0.897455
vt 0.608009 0.711474
vt 0.596386 0.897455
vt 0.596386 0.711474
vt 0.584762 0.897455
vt 0.584762 0.711474
vt 0.573138 0.897455
vt 0.573138 0.711474
vt 0.561514 0.897455
vt 0.561514 0.711474
vt 0.549890 0.897455
vt 0.549890 0.711474
vt 0.538266 0.897455
vt 0.538266 0.711474
vt 0.230677 0.647639
vt 0.197000 0.650956
vt 0.163323 0.647639
vt 0.130940 0.637816
vt 0.101096 0.621864
vt 0.074937 0.600396
vt 0.053469 0.574237
vt 0.037517 0.544393
vt 0.027694 0.512010
vt 0.024377 0.478333
vt 0.027694 0.444656
vt 0.037517 0.412273
vt 0.053469 0.382429
vt 0.074937 0.356271
vt 0.101096 0.334803
vt 0.130940 0.318851
vt 0.163323 0.309028
vt 0.197000 0.305711
vt 0.230677 0.309028
vt 0.263060 0.318851
vt 0.292904 0.334803
vt 0.319063 0.356271
vt 0.340531 0.382429
vt 0.356483 0.412273
vt 0.366306 0.444656
vt 0.369623 0.478333
vt 0.366306 0.512010
vt 0.356483 0.544393
vt 0.340531 0.574237
vt 0.319063 0.600396
vt 0.292904 0.621864
vt 0.263060 0.637816
vt 0.526643 0.897455
vt 0.526643 0.711474
vt 0.515019 0.897455
vt 0.515019 0.711474
vt 0.793991 0.707754
vt 0.811407 0.706039
vt 0.828153 0.700959
vt 0.843587 0.692709
vt 0.857115 0.681607
vt 0.868217 0.668079
vt 0.876466 0.652645
vt 0.881546 0.635899
vt 0.883262 0.618483
vt 0.881546 0.601067
vt 0.876466 0.584320
vt 0.868217 0.568887
vt 0.857115 0.555359
vt 0.843587 0.544257
vt 0.828153 0.536007
vt 0.811407 0.530927
vt 0.793991 0.529212
vt 0.776575 0.530927
vt 0.759828 0.536007
vt 0.744394 0.544257
vt 0.730866 0.555359
vt 0.719765 0.568887
vt 0.711515 0.584320
vt 0.706435 0.601067
vt 0.704720 0.618483
vt 0.706435 0.635899
vt 0.711515 0.652645
vt 0.719765 0.668079
vt 0.730866 0.681607
vt 0.744394 0.692709
vt 0.759828 0.700959
vt 0.776575 0.706039
s 0
usemtl Material.003
f 1/1/1 2/2/1 4/3/1 3/4/1
f 3/4/2 4/3/2 6/5/2 5/6/2
f 5/6/3 6/5/3 8/7/3 7/8/3
f 7/8/4 8/7/4 10/9/4 9/10/4
f 9/10/5 10/9/5 12/11/5 11/12/5
f 11/12/6 12/11/6 14/13/6 13/14/6
f 13/14/7 14/13/7 16/15/7 15/16/7
f 15/16/8 16/15/8 18/17/8 17/18/8
f 17/18/9 18/17/9 20/19/9 19/20/9
f 19/20/10 20/19/10 22/21/10 21/22/10
f 21/22/11 22/21/11 24/23/11 23/24/11
f 23/24/12 24/23/12 26/25/12 25/26/12
f 25/26/13 26/25/13 28/27/13 27/28/13
f 27/28/14 28/27/14 30/29/14 29/30/14
f 29/30/15 30/29/15 32/31/15 31/32/15
f 31/32/16 32/31/16 34/33/16 33/34/16
f 33/34/17 34/33/17 36/35/17 35/36/17
f 35/36/18 36/35/18 38/37/18 37/38/18
f 37/38/19 38/37/19 40/39/19 39/40/19
f 39/40/20 40/39/20 42/41/20 41/42/20
f 41/42/21 42/41/21 44/43/21 43/44/21
f 43/44/22 44/43/22 46/45/22 45/46/22
f 45/46/23 46/45/23 48/47/23 47/48/23
f 47/48/24 48/47/24 50/49/24 49/50/24
f 49/50/25 50/49/25 52/51/25 51/52/25
f 51/52/26 52/51/26 54/53/26 53/54/26
f 53/54/27 54/53/27 56/55/27 55/56/27
f 55/56/28 56/55/28 58/57/28 57/58/28
f 57/58/29 58/57/29 60/59/29 59/60/29
f 59/60/30 60/59/30 62/61/30 61/62/30
f 4/63/31 2/64/31 64/65/31 62/66/31 60/67/31 58/68/31 56/69/31 54/70/31 52/71/31 50/72/31 48/73/31 46/74/31 44/75/31 42/76/31 40/77/31 38/78/31 36/79/31 34/80/31 32/81/31 30/82/31 28/83/31 26/84/31 24/85/31 22/86/31 20/87/31 18/88/31 16/89/31 14/90/31 12/91/31 10/92/31 8/93/31 6/94/31
f 61/62/32 62/61/32 64/95/32 63/96/32
f 63/96/33 64/95/33 2/97/33 1/98/33
f 1/99/34 3/100/34 5/101/34 7/102/34 9/103/34 11/104/34 13/105/34 15/106/34 17/107/34 19/108/34 21/109/34 23/110/34 25/111/34 27/112/34 29/113/34 31/114/34 33/115/34 35/116/34 37/117/34 39/118/34 41/119/34 43/120/34 45/121/34 47/122/34 49/123/34 51/124/34 53/125/34 55/126/34 57/127/34 59/128/34 61/129/34 63/130/34
usemtl Material.004
f 65/1/1 66/2/1 68/3/1 67/4/1
f 67/4/2 68/3/2 70/5/2 69/6/2
f 69/6/3 70/5/3 72/7/3 71/8/3
f 71/8/4 72/7/4 74/9/4 73/10/4
f 73/10/5 74/9/5 76/11/5 75/12/5
f 75/12/6 76/11/6 78/13/6 77/14/6
f 77/14/7 78/13/7 80/15/7 79/16/7
f 79/16/8 80/15/8 82/17/8 81/18/8
f 81/18/9 82/17/9 84/19/9 83/20/9
f 83/20/10 84/19/10 86/21/10 85/22/10
f 85/22/11 86/21/11 88/23/11 87/24/11
f 87/24/12 88/23/12 90/25/12 89/26/12
f 89/26/13 90/25/13 92/27/13 91/28/13
f 91/28/14 92/27/14 94/29/14 93/30/14
f 93/30/15 94/29/15 96/31/15 95/32/15
f 95/32/16 96/31/16 98/33/16 97/34/16
f 97/34/17 98/33/17 100/35/17 99/36/17
f 99/36/18 100/35/18 102/37/18 101/38/18
f 101/38/19 102/37/19 104/39/19 103/40/19
f 103/40/20 104/39/20 106/41/20 105/42/20
f 105/42/21 106/41/21 108/43/21 107/44/21
f 107/44/22 108/43/22 110/45/22 109/46/22
f 109/46/23 110/45/23 112/47/23 111/48/23
f 111/48/24 112/47/24 114/49/24 113/50/24
f 113/50/25 114/49/25 116/51/25 115/52/25
f 115/52/26 116/51/26 118/53/26 117/54/26
f 117/54/27 118/53/27 120/55/27 119/56/27
f 119/56/28 120/55/28 122/57/28 121/58/28
f 121/58/29 122/57/29 124/59/29 123/60/29
f 123/60/30 124/59/30 126/61/30 125/62/30
f 68/63/31 66/64/31 128/65/31 126/66/31 124/67/31 122/68/31 120/69/31 118/70/31 116/71/31 114/72/31 112/73/31 110/74/31 108/75/31 106/76/31 104/77/31 102/78/31 100/79/31 98/80/31 96/81/31 94/82/31 92/83/31 90/84/31 88/85/31 86/86/31 84/87/31 82/88/31 80/89/31 78/90/31 76/91/31 74/92/31 72/93/31 70/94/31
f 125/62/32 126/61/32 128/95/32 127/96/32
f 127/96/33 128/95/33 66/97/33 65/98/33
f 65/99/34 67/100/34 69/101/34 71/102/34 73/103/34 75/104/34 77/105/34 79/106/34 81/107/34 83/108/34 85/109/34 87/110/34 89/111/34 91/112/34 93/113/34 95/114/34 97/115/34 99/116/34 101/117/34 103/118/34 105/119/34 107/120/34 109/121/34 111/122/34 113/123/34 115/124/34 117/125/34 119/126/34 121/127/34 123/128/34 125/129/34 127/130/34
